<svg xmlns="http://www.w3.org/2000/svg" xmlns:xlink="http://www.w3.org/1999/xlink" width="29" height="29" viewBox="0 0 29 29"><defs><path id="w6gya" d="M659 410a1 1 0 0 1-1-1v-4a1 1 0 0 1 2 0v4a1 1 0 0 1-1 1zm12 0a1 1 0 0 1-1-1v-4a1 1 0 0 1 2 0v4a1 1 0 0 1-1 1zm7-.92v17.84c0 1.7-1.38 3.08-3.08 3.08h-19.84a3.08 3.08 0 0 1-3.08-3.08v-17.84c0-1.7 1.38-3.08 3.08-3.08h.92v3a3 3 0 0 0 6 0v-3h6v3a3 3 0 0 0 6 0v-3h.92c1.7 0 3.08 1.38 3.08 3.08zm-2 4.92h-22v12h22zm-18 4h-2v-2h2zm0 4h-2v-2h2zm4-4h-2v-2h2zm0 4h-2v-2h2zm4-4h-2v-2h2zm0 4h-2v-2h2zm4-4h-2v-2h2zm4 0h-2v-2h2zm-4 4h-2v-2h2z"/></defs><g><g transform="translate(-650 -402)"><use fill="#656565" xlink:href="#w6gya"/></g></g></svg>