<svg xmlns="http://www.w3.org/2000/svg" xmlns:xlink="http://www.w3.org/1999/xlink" width="33" height="19" viewBox="0 0 33 19"><defs><path id="y7wka" d="M949.97 303.05h13.5l-2.28 2.28a1 1 0 0 0 0 1.4c.2.2.45.3.7.3.27 0 .51-.1.71-.3l3.98-3.97a1 1 0 0 0 0-1.41l-3.98-3.98a1 1 0 0 0-1.4 0 1 1 0 0 0 0 1.41l2.28 2.28h-13.5a1 1 0 0 0 0 1.99zm-8.65 9.65c.2.2.44.3.7.3.26 0 .5-.1.7-.3a1 1 0 0 0 0-1.4l-2.28-2.29h13.5a1 1 0 0 0 0-1.99h-13.5l2.29-2.27a1 1 0 0 0 0-1.41 1 1 0 0 0-1.41 0l-3.98 3.97a1 1 0 0 0 0 1.42z"/></defs><g><g transform="translate(-935 -295)"><use fill="#fff" xlink:href="#y7wka"/></g></g></svg>